<svg width="111" height="705" fill="none" xmlns="http://www.w3.org/2000/svg"><path fill-rule="evenodd" clip-rule="evenodd" d="M7.074 5h8.793c.721 0 .983.075 1.247.216.263.141.47.348.611.612.141.263.216.525.216 1.246v8.793c0 .721-.075.983-.216 1.247a1.47 1.47 0 0 1-.611.611c-.264.141-.526.216-1.247.216H7.074c-.721 0-.983-.075-1.246-.216a1.47 1.47 0 0 1-.612-.611C5.076 16.85 5 16.588 5 15.867V7.074c0-.721.075-.983.216-1.246a1.47 1.47 0 0 1 .612-.612C6.09 5.076 6.353 5 7.074 5Z" fill="#EE6C4D"/><path fill-rule="evenodd" clip-rule="evenodd" d="M22.926 25h-8.793c-.721 0-.983-.075-1.247-.216a1.47 1.47 0 0 1-.611-.612c-.141-.263-.216-.525-.216-1.246v-8.793c0-.721.075-.983.216-1.247a1.47 1.47 0 0 1 .611-.611c.264-.141.526-.216 1.247-.216h8.793c.721 0 .983.075 1.246.216.264.14.471.348.612.611.14.264.216.526.216 1.247v8.793c0 .721-.075.983-.216 1.246-.141.264-.348.471-.612.612-.263.14-.525.216-1.246.216Z" fill="#EE6C4D"/><circle cx="15" cy="15" r=".833" fill="#fff"/><path d="m17.784 18.552-.01 2.003a.56.56 0 0 1-.556.557.547.547 0 0 1-.551-.551l.016-3.321a.56.56 0 0 1 .557-.557l3.321-.016a.547.547 0 0 1 .55.55.56.56 0 0 1-.556.557l-2.123.01 3.092 3.093a.498.498 0 0 1-.004.704.498.498 0 0 1-.704.004l-3.032-3.033ZM12.218 11.51l.01-2.003a.56.56 0 0 1 .556-.557.547.547 0 0 1 .55.55l-.016 3.322a.56.56 0 0 1-.556.557l-3.321.016a.547.547 0 0 1-.551-.55.56.56 0 0 1 .556-.557l2.123-.01-3.092-3.093a.498.498 0 0 1 .004-.704.498.498 0 0 1 .704-.004l3.033 3.033Z" fill="#fff"/><path fill-rule="evenodd" clip-rule="evenodd" d="M7.074 30h8.793c.721 0 .983.075 1.247.216.263.141.47.348.611.612.141.263.216.525.216 1.246v8.793c0 .722-.075.983-.216 1.247a1.47 1.47 0 0 1-.611.611c-.264.141-.526.216-1.247.216H7.074c-.721 0-.983-.075-1.246-.216a1.47 1.47 0 0 1-.612-.611C5.076 41.85 5 41.589 5 40.867v-8.793c0-.721.075-.983.216-1.246.141-.264.348-.471.612-.612.263-.14.525-.216 1.246-.216Z" fill="#EE6C4D"/><path fill-rule="evenodd" clip-rule="evenodd" d="M22.926 50h-8.793c-.721 0-.983-.075-1.247-.216a1.47 1.47 0 0 1-.611-.612c-.141-.263-.216-.525-.216-1.246v-8.793c0-.722.075-.983.216-1.247a1.47 1.47 0 0 1 .611-.611c.264-.141.526-.216 1.247-.216h8.793c.721 0 .983.075 1.246.216.264.14.471.348.612.611.14.264.216.525.216 1.247v8.793c0 .721-.075.983-.216 1.246-.141.264-.348.471-.612.612-.263.14-.525.216-1.246.216Z" fill="#EE6C4D"/><circle cx="15" cy="40" r=".833" fill="#fff"/><path d="m20.551 44.843.01-2.003a.56.56 0 0 1 .556-.557.547.547 0 0 1 .551.551l-.016 3.322a.56.56 0 0 1-.557.556l-3.321.017a.547.547 0 0 1-.55-.551.56.56 0 0 1 .555-.556l2.124-.011-3.092-3.092a.498.498 0 0 1 .003-.704.498.498 0 0 1 .705-.005l3.032 3.033ZM9.45 35.219l-.01 2.003a.56.56 0 0 1-.556.556.547.547 0 0 1-.55-.55l.016-3.322a.56.56 0 0 1 .556-.556l3.322-.017a.547.547 0 0 1 .55.551.56.56 0 0 1-.556.556l-2.123.011 3.092 3.092a.498.498 0 0 1-.004.705.498.498 0 0 1-.704.004L9.45 35.218Z" fill="#fff"/><g fill-rule="evenodd" clip-rule="evenodd"><path d="M8.205 55h13.59c1.114 0 1.519.116 1.926.334.407.218.727.537.945.945.218.407.334.811.334 1.926v13.59c0 1.114-.116 1.519-.334 1.926a2.272 2.272 0 0 1-.945.945c-.407.218-.811.334-1.926.334H8.205c-1.115 0-1.519-.116-1.926-.334a2.272 2.272 0 0 1-.945-.945C5.116 73.314 5 72.91 5 71.795v-13.59c0-1.114.116-1.519.334-1.926.218-.408.538-.727.945-.945.407-.218.811-.334 1.926-.334Z" fill="#EE6C4D"/><path d="M21 60.209 19.791 59 15 63.791 10.209 59 9 60.209 13.791 65 9 69.791 10.209 71 15 66.209 19.791 71 21 69.791 16.209 65 21 60.209Z" fill="#fff"/></g><g fill-rule="evenodd" clip-rule="evenodd"><path d="M8.205 80h13.59c1.114 0 1.519.116 1.926.334.407.218.727.537.945.945.218.407.334.812.334 1.926v13.59c0 1.114-.116 1.519-.334 1.926a2.272 2.272 0 0 1-.945.945c-.407.218-.811.334-1.926.334H8.205c-1.115 0-1.519-.116-1.926-.334a2.272 2.272 0 0 1-.945-.945C5.116 98.314 5 97.91 5 96.795v-13.59c0-1.114.116-1.519.334-1.926.218-.407.538-.727.945-.945.407-.218.811-.334 1.926-.334Z" fill="#EE6C4D"/><path d="m17.544 84.28 4.5 4.501a.389.389 0 0 1 0 .55l-4.5 4.501a.389.389 0 0 1-.664-.275V91.31c-3.885 0-6.604 1.244-8.547 3.963.777-3.885 3.108-7.77 8.547-8.547v-2.17a.388.388 0 0 1 .664-.275Z" fill="#fff"/></g><path fill-rule="evenodd" clip-rule="evenodd" d="M8.205 130h13.59c1.114 0 1.519.116 1.926.334.407.218.727.538.945.945.218.407.334.811.334 1.926v13.59c0 1.115-.116 1.519-.334 1.926a2.275 2.275 0 0 1-.945.945c-.407.218-.811.334-1.926.334H8.205c-1.115 0-1.519-.116-1.926-.334a2.275 2.275 0 0 1-.945-.945c-.218-.407-.334-.811-.334-1.926v-13.59c0-1.115.116-1.519.334-1.926.218-.407.538-.727.945-.945.407-.218.811-.334 1.926-.334Z" fill="#8FBC5D"/><circle cx="15" cy="140" r=".833" fill="#fff"/><path d="m17.784 143.552-.01 2.003a.561.561 0 0 1-.556.557.547.547 0 0 1-.551-.551l.016-3.321a.561.561 0 0 1 .557-.557l3.321-.016a.546.546 0 0 1 .55.55.561.561 0 0 1-.556.557l-2.123.01 3.092 3.093a.498.498 0 0 1-.004.704.499.499 0 0 1-.704.004l-3.032-3.033ZM12.218 136.51l.01-2.003a.561.561 0 0 1 .556-.557.547.547 0 0 1 .55.551l-.016 3.321a.561.561 0 0 1-.556.557l-3.321.016a.546.546 0 0 1-.551-.55.561.561 0 0 1 .556-.557l2.123-.01-3.092-3.093a.498.498 0 0 1 .004-.704.499.499 0 0 1 .704-.004l3.033 3.033ZM12.218 143.552l.01 2.003c.001.306.25.555.556.557a.547.547 0 0 0 .55-.551l-.016-3.321a.561.561 0 0 0-.556-.557l-3.321-.016a.546.546 0 0 0-.551.55c.001.306.25.555.556.557l2.123.01-3.092 3.093a.498.498 0 0 0 .004.704c.196.195.51.197.704.004l3.033-3.033ZM17.784 136.51l-.01-2.003a.561.561 0 0 0-.556-.557.547.547 0 0 0-.551.551l.016 3.321c.002.306.251.555.557.557l3.321.016a.546.546 0 0 0 .55-.55.561.561 0 0 0-.556-.557l-2.123-.01 3.092-3.093a.498.498 0 0 0-.004-.704.499.499 0 0 0-.704-.004l-3.032 3.033Z" fill="#fff"/><g fill-rule="evenodd" clip-rule="evenodd"><path d="M8.205 155h13.59c1.114 0 1.519.116 1.926.334.407.218.727.538.945.945.218.407.334.811.334 1.926v13.59c0 1.115-.116 1.519-.334 1.926a2.275 2.275 0 0 1-.945.945c-.407.218-.811.334-1.926.334H8.205c-1.115 0-1.519-.116-1.926-.334a2.275 2.275 0 0 1-.945-.945c-.218-.407-.334-.811-.334-1.926v-13.59c0-1.115.116-1.519.334-1.926.218-.407.538-.727.945-.945.407-.218.811-.334 1.926-.334Z" fill="#8FBC5D"/><path d="M13.327 165.945c.048.04.072.098.072.157a.202.202 0 0 1-.047.13l-2.624 3.161a.202.202 0 0 1-.358-.131c0-.046.016-.092.047-.13l2.625-3.161a.202.202 0 0 1 .285-.026Zm.852.718c.048.04.072.098.072.156a.2.2 0 0 1-.046.13l-2.625 3.161a.202.202 0 0 1-.357-.131c0-.045.015-.092.046-.13l2.625-3.161a.202.202 0 0 1 .285-.025Zm-4.327 2.123a1.104 1.104 0 0 0 .137 1.543l.496.417c.459.387 1.149.325 1.533-.138l2.782-3.35L12.995 165l-3.143 3.786ZM18.303 161.375c.145-.173.323-.316.529-.424l.124-.065c.156-.082.29-.19.4-.321l.414-.498c.055-.065.032-.175-.051-.245l-.677-.567c-.083-.07-.195-.074-.25-.008l-.415.498c-.11.131-.191.283-.244.451l-.041.134c-.07.222-.179.424-.323.597l-2.169 2.601.515.472 2.188-2.625Z" fill="#fff"/><path d="M19.535 170.03a.724.724 0 0 1-1.026-.038.731.731 0 0 1 .038-1.03.725.725 0 0 1 1.026.038.731.731 0 0 1-.038 1.03Zm-4.899-6.631a1.49 1.49 0 0 1-.463-1.327 2.416 2.416 0 0 0-.611-2.038 2.396 2.396 0 0 0-1.938-.763.15.15 0 0 0-.099.253l1.098 1.185a.582.582 0 0 1-.03.82l-.997.931a.578.578 0 0 1-.818-.03l-1.095-1.182a.15.15 0 0 0-.258.082c-.102.71.108 1.459.635 2.014.52.547 1.236.796 1.935.74.493-.04.974.174 1.285.561l4.718 5.887c.55.593 1.482.627 2.073.076.59-.551.624-1.488.075-2.081l-5.51-5.128Z" fill="#fff"/></g><path fill-rule="evenodd" clip-rule="evenodd" d="M22.926 200h-8.793c-.721 0-.983-.075-1.247-.216a1.47 1.47 0 0 1-.611-.612c-.141-.263-.216-.525-.216-1.246v-8.793c0-.722.075-.983.216-1.247.14-.263.348-.47.611-.611.264-.141.526-.216 1.247-.216h8.793c.721 0 .983.075 1.246.216.264.141.471.348.612.611.14.264.216.525.216 1.247v8.793c0 .721-.075.983-.216 1.246-.141.264-.348.471-.612.612-.263.141-.525.216-1.246.216Z" fill="#FFF3B6"/><path fill-rule="evenodd" clip-rule="evenodd" d="M7.074 180h8.793c.721 0 .983.075 1.247.216.263.141.47.348.611.612.141.263.216.525.216 1.246v8.793c0 .722-.075.983-.216 1.247-.14.263-.348.47-.611.611-.264.141-.526.216-1.247.216H7.074c-.721 0-.983-.075-1.246-.216a1.472 1.472 0 0 1-.612-.611c-.14-.264-.216-.525-.216-1.247v-8.793c0-.721.075-.983.216-1.246.141-.264.348-.471.612-.612.263-.141.525-.216 1.246-.216Z" fill="#FFD400"/><path d="m22.218 196.51.01-2.003a.561.561 0 0 1 .556-.557.547.547 0 0 1 .55.551l-.016 3.321a.561.561 0 0 1-.556.557l-3.322.016a.546.546 0 0 1-.55-.55.561.561 0 0 1 .556-.557l2.123-.01-3.092-3.093a.498.498 0 0 1 .004-.704.499.499 0 0 1 .704-.004l3.033 3.033Z" fill="#DAB400"/><path fill-rule="evenodd" clip-rule="evenodd" d="M15.104 184.167a.917.917 0 0 1 0 1.833.918.918 0 0 1 0-1.833ZM10.103 190.125H7.196a.113.113 0 0 1-.098-.057.11.11 0 0 1 0-.111l3.016-5.052c.04-.068.153-.068.194 0l1.756 2.944 1.178-1.203a.113.113 0 0 1 .08-.034h.005a.113.113 0 0 1 .082.039l2.791 3.27c.03.02.05.054.05.093 0 .061-.05.111-.113.111H10.103Z" fill="#fff"/><path fill-rule="evenodd" clip-rule="evenodd" d="M22.926 225h-8.793c-.721 0-.983-.075-1.247-.216a1.47 1.47 0 0 1-.611-.612c-.141-.263-.216-.525-.216-1.246v-8.793c0-.722.075-.983.216-1.247.14-.263.348-.47.611-.611.264-.141.526-.216 1.247-.216h8.793c.721 0 .983.075 1.246.216.264.141.471.348.612.611.14.264.216.525.216 1.247v8.793c0 .721-.075.983-.216 1.246-.141.264-.348.471-.612.612-.263.141-.525.216-1.246.216Z" fill="#5F83C6"/><path fill-rule="evenodd" clip-rule="evenodd" d="M7.074 205h8.793c.721 0 .983.075 1.247.216.263.141.47.348.611.612.141.263.216.525.216 1.246v8.793c0 .722-.075.983-.216 1.247-.14.263-.348.47-.611.611-.264.141-.526.216-1.247.216H7.074c-.721 0-.983-.075-1.246-.216a1.472 1.472 0 0 1-.612-.611c-.14-.264-.216-.525-.216-1.247v-8.793c0-.721.075-.983.216-1.246.141-.264.348-.471.612-.612.263-.141.525-.216 1.246-.216Z" fill="#DCE5FA"/><path d="m22.218 221.51.01-2.003a.561.561 0 0 1 .556-.557.547.547 0 0 1 .55.551l-.016 3.321a.561.561 0 0 1-.556.557l-3.322.016a.546.546 0 0 1-.55-.55.561.561 0 0 1 .556-.557l2.123-.01-3.092-3.093a.498.498 0 0 1 .004-.704.499.499 0 0 1 .704-.004l3.033 3.033Z" fill="#fff"/><path d="M13.54 208.334h1.252L13.548 215h-1.309l-.017-.092-.734-4.023-.771 4.115H9.361l-1.237-6.667h1.338l.014.096.623 4.168.822-4.264h1.27l.017.093.713 4.139.617-4.231Z" fill="#295795"/><path fill-rule="evenodd" clip-rule="evenodd" d="M22.926 275h-8.793c-.721 0-.983-.075-1.247-.216a1.47 1.47 0 0 1-.611-.612c-.141-.263-.216-.525-.216-1.246v-8.793c0-.722.075-.983.216-1.247.14-.263.348-.47.611-.611.264-.141.526-.216 1.247-.216h8.793c.721 0 .983.075 1.246.216.264.141.471.348.612.611.14.264.216.525.216 1.247v8.793c0 .721-.075.983-.216 1.246-.141.264-.348.471-.612.612-.263.141-.525.216-1.246.216Z" fill="#5EA162"/><path fill-rule="evenodd" clip-rule="evenodd" d="M7.074 255h8.793c.721 0 .983.075 1.247.216.263.141.47.348.611.612.141.263.216.525.216 1.246v8.793c0 .722-.075.983-.216 1.247-.14.263-.348.47-.611.611-.264.141-.526.216-1.247.216H7.074c-.721 0-.983-.075-1.246-.216a1.472 1.472 0 0 1-.612-.611c-.14-.264-.216-.525-.216-1.247v-8.793c0-.721.075-.983.216-1.246.141-.264.348-.471.612-.612.263-.141.525-.216 1.246-.216Z" fill="#C2E5C3"/><path d="m22.218 271.51.01-2.003a.561.561 0 0 1 .556-.557.547.547 0 0 1 .55.551l-.016 3.321a.561.561 0 0 1-.556.557l-3.322.016a.546.546 0 0 1-.55-.55.561.561 0 0 1 .556-.557l2.123-.01-3.092-3.093a.498.498 0 0 1 .004-.704.499.499 0 0 1 .704-.004l3.033 3.033Z" fill="#fff"/><path fill-rule="evenodd" clip-rule="evenodd" d="m12.517 264.792-.929-2.171a2.243 2.243 0 0 1-.11-.446h-.014a3.948 3.948 0 0 1-.124.465l-.933 2.152H8.958l1.72-3.333-1.573-3.334h1.479l.77 1.999c.06.158.115.346.163.563h.014c.03-.13.086-.324.17-.581l.857-1.98h1.355l-1.618 3.305 1.663 3.361h-1.44Z" fill="#2E7237"/><path fill-rule="evenodd" clip-rule="evenodd" d="M22.926 250h-8.793c-.721 0-.983-.075-1.247-.216a1.47 1.47 0 0 1-.611-.612c-.141-.263-.216-.525-.216-1.246v-8.793c0-.722.075-.983.216-1.247.14-.263.348-.47.611-.611.264-.141.526-.216 1.247-.216h8.793c.721 0 .983.075 1.246.216.264.141.471.348.612.611.14.264.216.525.216 1.247v8.793c0 .721-.075.983-.216 1.246-.141.264-.348.471-.612.612-.263.141-.525.216-1.246.216Z" fill="#FF7651"/><path fill-rule="evenodd" clip-rule="evenodd" d="M7.074 230h8.793c.721 0 .983.075 1.247.216.263.141.47.348.611.612.141.263.216.525.216 1.246v8.793c0 .722-.075.983-.216 1.247-.14.263-.348.47-.611.611-.264.141-.526.216-1.247.216H7.074c-.721 0-.983-.075-1.246-.216a1.472 1.472 0 0 1-.612-.611c-.14-.264-.216-.525-.216-1.247v-8.793c0-.721.075-.983.216-1.246.141-.264.348-.471.612-.612.263-.141.525-.216 1.246-.216Z" fill="#F3D9CC"/><path d="m22.218 246.51.01-2.003a.561.561 0 0 1 .556-.557.547.547 0 0 1 .55.551l-.016 3.321a.561.561 0 0 1-.556.557l-3.322.016a.546.546 0 0 1-.55-.55.561.561 0 0 1 .556-.557l2.123-.01-3.092-3.093a.498.498 0 0 1 .004-.704.499.499 0 0 1 .704-.004l3.033 3.033Z" fill="#fff"/><path fill-rule="evenodd" clip-rule="evenodd" d="M11.48 237.495c.69 0 1.24-.207 1.652-.62.412-.414.618-.956.618-1.625 0-1.417-.718-2.125-2.155-2.125H9.583v6.667h1.284v-2.297h.613Zm-.57-3.221h.5c.676 0 1.015.341 1.014 1.023 0 .698-.338 1.046-1.015 1.046h-.5v-2.069Z" fill="#D04526"/><path fill-rule="evenodd" clip-rule="evenodd" d="M7.074 305h8.793c.721 0 .983.075 1.247.216.263.141.47.348.611.612.141.263.216.525.216 1.246v8.793c0 .722-.075.983-.216 1.247-.14.263-.348.47-.611.611-.264.141-.526.216-1.247.216H7.074c-.721 0-.983-.075-1.246-.216a1.472 1.472 0 0 1-.612-.611c-.14-.264-.216-.525-.216-1.247v-8.793c0-.721.075-.983.216-1.246.141-.264.348-.471.612-.612.263-.141.525-.216 1.246-.216Z" fill="#DCE5FA"/><path fill-rule="evenodd" clip-rule="evenodd" d="M22.926 325h-8.793c-.721 0-.983-.075-1.247-.216a1.47 1.47 0 0 1-.611-.612c-.141-.263-.216-.525-.216-1.246v-8.793c0-.722.075-.983.216-1.247.14-.263.348-.47.611-.611.264-.141.526-.216 1.247-.216h8.793c.721 0 .983.075 1.246.216.264.141.471.348.612.611.14.264.216.525.216 1.247v8.793c0 .721-.075.983-.216 1.246-.141.264-.348.471-.612.612-.263.141-.525.216-1.246.216Z" fill="#5F83C6"/><path d="m10.551 309.843.01-2.003a.56.56 0 0 1 .556-.556.546.546 0 0 1 .551.55l-.016 3.322a.56.56 0 0 1-.557.556l-3.321.017a.547.547 0 0 1-.55-.551.56.56 0 0 1 .555-.556l2.124-.011-3.092-3.092a.499.499 0 0 1 .004-.705.498.498 0 0 1 .704-.003l3.032 3.032Z" fill="#295795"/><path d="M20.83 315.417h1.253l-1.244 6.666h-1.308l-.017-.092-.735-4.022-.77 4.114h-1.355l-1.237-6.666h1.337l.015.095.622 4.168.823-4.263h1.27l.016.093.713 4.139.618-4.232Z" fill="#fff"/><path fill-rule="evenodd" clip-rule="evenodd" d="M7.074 330h8.793c.721 0 .983.075 1.247.216.263.141.47.348.611.612.141.263.216.525.216 1.246v8.793c0 .722-.075.983-.216 1.247-.14.263-.348.47-.611.611-.264.141-.526.216-1.247.216H7.074c-.721 0-.983-.075-1.246-.216a1.472 1.472 0 0 1-.612-.611c-.14-.264-.216-.525-.216-1.247v-8.793c0-.721.075-.983.216-1.246.141-.264.348-.471.612-.612.263-.141.525-.216 1.246-.216Z" fill="#F3D9CC"/><path fill-rule="evenodd" clip-rule="evenodd" d="M22.926 350h-8.793c-.721 0-.983-.075-1.247-.216a1.47 1.47 0 0 1-.611-.612c-.141-.263-.216-.525-.216-1.246v-8.793c0-.722.075-.983.216-1.247.14-.263.348-.47.611-.611.264-.141.526-.216 1.247-.216h8.793c.721 0 .983.075 1.246.216.264.141.471.348.612.611.14.264.216.525.216 1.247v8.793c0 .721-.075.983-.216 1.246-.141.264-.348.471-.612.612-.263.141-.525.216-1.246.216Z" fill="#FF7651"/><path d="m10.551 334.843.01-2.003a.56.56 0 0 1 .556-.556.546.546 0 0 1 .551.55l-.016 3.322a.56.56 0 0 1-.557.556l-3.321.017a.547.547 0 0 1-.55-.551.56.56 0 0 1 .555-.556l2.124-.011-3.092-3.092a.499.499 0 0 1 .004-.705.498.498 0 0 1 .704-.003l3.032 3.032Z" fill="#D04526"/><path fill-rule="evenodd" clip-rule="evenodd" d="M18.772 344.787c.69 0 1.24-.207 1.652-.621.412-.414.618-.956.618-1.625 0-1.416-.718-2.124-2.155-2.124h-2.012v6.666h1.284v-2.296h.613Zm-.571-3.221h.5c.677 0 1.015.341 1.015 1.023 0 .698-.338 1.046-1.015 1.046h-.5v-2.069Z" fill="#fff"/><path fill-rule="evenodd" clip-rule="evenodd" d="M7.074 355h8.793c.721 0 .983.075 1.247.216.263.141.47.348.611.612.141.263.216.525.216 1.246v8.793c0 .722-.075.983-.216 1.247-.14.263-.348.47-.611.611-.264.141-.526.216-1.247.216H7.074c-.721 0-.983-.075-1.246-.216a1.472 1.472 0 0 1-.612-.611c-.14-.264-.216-.525-.216-1.247v-8.793c0-.721.075-.983.216-1.246.141-.264.348-.471.612-.612.263-.141.525-.216 1.246-.216Z" fill="#C2E5C3"/><path fill-rule="evenodd" clip-rule="evenodd" d="M22.926 375h-8.793c-.721 0-.983-.075-1.247-.216a1.47 1.47 0 0 1-.611-.612c-.141-.263-.216-.525-.216-1.246v-8.793c0-.722.075-.983.216-1.247.14-.263.348-.47.611-.611.264-.141.526-.216 1.247-.216h8.793c.721 0 .983.075 1.246.216.264.141.471.348.612.611.14.264.216.525.216 1.247v8.793c0 .721-.075.983-.216 1.246-.141.264-.348.471-.612.612-.263.141-.525.216-1.246.216Z" fill="#5EA162"/><path d="m10.551 359.843.01-2.003a.56.56 0 0 1 .556-.556.546.546 0 0 1 .551.55l-.016 3.322a.56.56 0 0 1-.557.556l-3.321.017a.547.547 0 0 1-.55-.551.56.56 0 0 1 .555-.556l2.124-.011-3.092-3.092a.499.499 0 0 1 .004-.705.498.498 0 0 1 .704-.003l3.032 3.032Z" fill="#2E7237"/><path fill-rule="evenodd" clip-rule="evenodd" d="m19.809 372.083-.93-2.17a2.264 2.264 0 0 1-.109-.447h-.014a3.917 3.917 0 0 1-.124.465l-.933 2.152H16.25l1.72-3.333-1.573-3.333h1.478l.771 1.999c.06.158.115.345.162.563h.015c.03-.131.086-.324.17-.581l.857-1.981h1.355l-1.618 3.306 1.663 3.36h-1.441Z" fill="#fff"/><path fill-rule="evenodd" clip-rule="evenodd" d="M15 280h6.795c1.114 0 1.519.116 1.926.334.407.218.727.538.945.945.218.407.334.811.334 1.926v13.59c0 1.115-.116 1.519-.334 1.926a2.275 2.275 0 0 1-.945.945c-.407.218-.811.334-1.926.334H8.205c-1.115 0-1.519-.116-1.926-.334a2.275 2.275 0 0 1-.945-.945c-.218-.407-.334-.811-.334-1.926V290h8.264c.604 0 .823-.063 1.043-.181.22-.118.394-.291.512-.512.118-.22.181-.439.181-1.043V280Z" fill="#FFD400"/><path fill-rule="evenodd" clip-rule="evenodd" d="M6.469 280h6.229c.51 0 .696.053.883.153.186.1.333.246.433.433.1.187.153.372.153.883v6.229c0 .511-.053.696-.153.882-.1.187-.247.334-.433.434-.187.099-.372.153-.883.153h-6.23c-.51 0-.695-.054-.882-.153a1.042 1.042 0 0 1-.433-.434c-.1-.186-.153-.371-.153-.882v-6.229c0-.511.053-.696.153-.883.1-.187.246-.333.433-.433.187-.1.372-.153.883-.153Z" fill="#FFF3B6"/><path d="m10.551 284.843.01-2.003a.56.56 0 0 1 .556-.556.546.546 0 0 1 .551.55l-.016 3.322a.56.56 0 0 1-.557.556l-3.321.017a.547.547 0 0 1-.55-.551.56.56 0 0 1 .555-.556l2.124-.011-3.092-3.092a.499.499 0 0 1 .004-.705.498.498 0 0 1 .704-.003l3.032 3.032Z" fill="#DAB400"/><path fill-rule="evenodd" clip-rule="evenodd" d="M11.726 292.813v3.202c0 1.134-.593 1.818-1.739 1.818-1.392 0-1.654-.984-1.654-1.518 0-.458.198-.751.552-.751.417 0 .523.345.523.714 0 .353.155.608.565.608.382 0 .594-.3.594-.886v-3.187c0-.368.226-.616.58-.616.353 0 .58.248.58.616Zm1.075 4.374v-4.171c0-.549.269-.722.679-.722h1.774c.976 0 1.76.511 1.76 1.714 0 .984-.643 1.713-1.767 1.713H13.96v1.466c0 .368-.226.616-.58.616-.353 0-.579-.248-.579-.616Zm1.16-3.946v1.534h1.081c.466 0 .813-.301.813-.767 0-.541-.36-.767-.933-.767h-.962Zm8.539 2.112v2.037c0 .225-.163.413-.396.413-.332 0-.424-.218-.495-.699-.332.444-.792.729-1.513.729-1.795 0-2.48-1.315-2.48-2.833 0-1.826 1.074-2.833 2.65-2.833 1.287 0 1.972.819 1.972 1.3 0 .428-.296.541-.544.541-.572 0-.36-.849-1.491-.849-.8 0-1.428.556-1.428 1.924 0 1.067.494 1.803 1.442 1.803.615 0 1.152-.443 1.209-1.104h-.757c-.247 0-.523-.098-.523-.474 0-.3.162-.473.452-.473h1.428c.34 0 .474.18.474.518Z" fill="#fff"/><path fill-rule="evenodd" clip-rule="evenodd" d="M8.205 430h13.59c1.114 0 1.519.116 1.926.334.407.218.727.538.945.945.218.407.334.811.334 1.926v13.59c0 1.115-.116 1.519-.334 1.926a2.275 2.275 0 0 1-.945.945c-.407.218-.811.334-1.926.334H8.205c-1.115 0-1.519-.116-1.926-.334a2.275 2.275 0 0 1-.945-.945c-.218-.407-.334-.811-.334-1.926v-13.59c0-1.115.116-1.519.334-1.926.218-.407.538-.727.945-.945.407-.218.811-.334 1.926-.334Z" fill="#AB6993"/><path d="M14.082 439.01c0 .344-.437 1.208-.843 1.866a.268.268 0 0 0-.032.209c.031.111.13.188.244.188h3.098a.253.253 0 0 0 .227-.142.26.26 0 0 0-.023-.269c-.578-.788-.835-1.36-.835-1.852 0-.493.257-1.064.837-1.857.265-.374.405-.816.405-1.277 0-1.208-.969-2.191-2.16-2.191-1.191 0-2.16.983-2.16 2.191 0 .461.14.903.408 1.281.577.789.834 1.36.834 1.853ZM19.689 441.632H10.31a.255.255 0 0 0-.254.257v2.587c0 .142.114.257.254.257h9.378c.14 0 .253-.115.253-.257v-2.587a.255.255 0 0 0-.253-.257ZM18.254 445.109h-6.508a.256.256 0 0 0-.254.258v.291c0 .142.114.258.254.258h6.508c.14 0 .254-.116.254-.258v-.291a.256.256 0 0 0-.254-.258Z" fill="#fff"/><g fill-rule="evenodd" clip-rule="evenodd"><path d="M8.205 380h13.59c1.114 0 1.519.116 1.926.334.407.218.727.538.945.945.218.407.334.811.334 1.926v13.59c0 1.115-.116 1.519-.334 1.926a2.275 2.275 0 0 1-.945.945c-.407.218-.811.334-1.926.334H8.205c-1.115 0-1.519-.116-1.926-.334a2.275 2.275 0 0 1-.945-.945c-.218-.407-.334-.811-.334-1.926v-13.59c0-1.115.116-1.519.334-1.926.218-.407.538-.727.945-.945.407-.218.811-.334 1.926-.334Z" fill="#AB6993"/><path d="M14.906 385.736a.5.5 0 0 0-.56-.432c-2.634.338-4.646 2.569-4.646 5.247a5.287 5.287 0 0 0 3.314 4.897.5.5 0 0 0 .377-.926 4.287 4.287 0 0 1-2.691-3.971c0-2.17 1.633-3.981 3.774-4.255a.5.5 0 0 0 .432-.56Zm4.927 4.709a.5.5 0 0 0 .424-.566 5.64 5.64 0 0 0-.44-1.536.5.5 0 0 0-.912.412c.178.394.298.814.362 1.265a.5.5 0 0 0 .566.425Zm-4.15 5.352a.5.5 0 0 1-.141-.99c.44-.063.85-.178 1.236-.348a.5.5 0 1 1 .405.914c-.472.209-.97.349-1.5.424Zm2.817-1.899a.5.5 0 0 0 .7-.1c.34-.454.604-.916.785-1.389a.5.5 0 1 0-.934-.357 4.766 4.766 0 0 1-.65 1.146.5.5 0 0 0 .1.7Z" fill="#fff"/><path d="M14.713 388.4a.315.315 0 0 1-.313-.313v-4.375c0-.17.142-.312.313-.312a.31.31 0 0 1 .22.093l2.187 2.187a.312.312 0 0 1 .092.22.312.312 0 0 1-.092.22l-2.188 2.187a.31.31 0 0 1-.22.093Z" fill="#fff"/></g><g fill-rule="evenodd" clip-rule="evenodd"><path d="M17.139 415.638h6.36c.523 0 .712.055.902.157.191.102.34.251.443.442.102.191.156.38.156.901v6.362c0 .521-.054.711-.156.901a1.063 1.063 0 0 1-.443.443c-.19.102-.38.156-.901.156h-6.361c-.522 0-.711-.054-.902-.156a1.063 1.063 0 0 1-.442-.443c-.102-.19-.157-.38-.157-.901v-6.362c0-.521.055-.71.157-.901.102-.191.251-.34.442-.442.19-.102.38-.157.902-.157ZM17.139 405h6.36c.523 0 .712.054.902.156.191.102.34.252.443.443.102.19.156.38.156.901v6.362c0 .521-.054.71-.156.901a1.06 1.06 0 0 1-.443.442c-.19.102-.38.157-.901.157h-6.361c-.522 0-.711-.055-.902-.157a1.061 1.061 0 0 1-.442-.442c-.102-.191-.157-.38-.157-.901V406.5c0-.521.055-.711.157-.901.102-.191.251-.341.442-.443.19-.102.38-.156.902-.156ZM6.5 415.638h6.362c.521 0 .71.055.901.157.19.102.34.251.442.442.102.191.157.38.157.901v6.362c0 .521-.055.711-.157.901a1.063 1.063 0 0 1-.442.443c-.19.102-.38.156-.901.156H6.5c-.521 0-.71-.054-.901-.156a1.063 1.063 0 0 1-.443-.443c-.102-.19-.156-.38-.156-.901v-6.362c0-.521.054-.71.156-.901a1.06 1.06 0 0 1 .443-.442c.19-.102.38-.157.901-.157ZM6.5 405h6.362c.521 0 .71.054.901.156.19.102.34.252.442.443.102.19.157.38.157.901v6.362c0 .521-.055.71-.157.901-.102.191-.251.34-.442.442-.19.102-.38.157-.901.157H6.5c-.521 0-.71-.055-.901-.157a1.06 1.06 0 0 1-.443-.442c-.102-.191-.156-.38-.156-.901V406.5c0-.521.054-.711.156-.901.102-.191.252-.341.443-.443.19-.102.38-.156.901-.156Z" fill="#AB6993"/><path d="M9.4 411.071v-2.102h-.714c-.182 0-.282-.066-.282-.293 0-.205.11-.26.399-.315l.204-.044c.614-.133.443-.764.913-.764.177 0 .32.078.32.376v3.142c0 .288-.11.487-.42.487s-.42-.199-.42-.487ZM19.742 410.789h1.66c.21 0 .365.1.365.349 0 .249-.155.348-.41.348h-2.074c-.32 0-.453-.215-.453-.409 0-.393.348-.83 1.04-1.267.769-.487 1.034-.586 1.034-1.034 0-.36-.276-.559-.58-.559-.355 0-.593.144-.714.586-.055.205-.127.31-.349.31-.226 0-.404-.094-.404-.37 0-.675.664-1.19 1.477-1.19.886 0 1.411.581 1.411 1.09 0 .736-.337 1.023-.924 1.355-.625.354-1.007.581-1.079.791ZM8.191 421.452c0-.226.166-.387.393-.387.493 0 .227.681.99.681.415 0 .637-.255.637-.598 0-.265-.117-.459-.498-.498-.155-.016-.46-.044-.46-.299 0-.287.167-.348.482-.365.277-.016.42-.177.42-.431 0-.332-.26-.487-.553-.487-.67 0-.514.631-.951.631-.188 0-.371-.083-.371-.332 0-.675.802-.963 1.339-.963.957 0 1.31.537 1.31 1.073 0 .354-.16.609-.47.775.415.116.593.448.593.863 0 .874-.675 1.294-1.494 1.294-1.04 0-1.367-.647-1.367-.957ZM20.426 420.822v-1.433h-.011l-1.068 1.433h1.079Zm0 1.2v-.57h-1.389c-.287 0-.42-.204-.42-.381 0-.144.033-.233.105-.327l1.704-2.185c.083-.11.205-.155.36-.155.298 0 .414.161.414.399v2.019h.277c.188 0 .31.132.31.315s-.122.315-.31.315H21.2v.57c0 .232-.1.387-.387.387-.287 0-.387-.155-.387-.387Z" fill="#fff"/></g><g fill-rule="evenodd" clip-rule="evenodd"><path d="M8.205 455h13.59c1.114 0 1.519.116 1.926.334.407.218.727.538.945.945.218.407.334.811.334 1.926v13.59c0 1.115-.116 1.519-.334 1.926a2.275 2.275 0 0 1-.945.945c-.407.218-.811.334-1.926.334H8.205c-1.115 0-1.519-.116-1.926-.334a2.275 2.275 0 0 1-.945-.945c-.218-.407-.334-.811-.334-1.926v-13.59c0-1.115.116-1.519.334-1.926.218-.407.538-.727.945-.945.407-.218.811-.334 1.926-.334Z" fill="#4A7AAB"/><path d="M13.051 463.831h6.07c.154 0 .279.125.279.279v5.905a.278.278 0 0 1-.279.278H10.88a.278.278 0 0 1-.279-.278v-5.905c0-.154.125-.279.279-.279h1.116c-.005-2.001.006-2.141.01-2.186.058-.719.436-1.44 1.01-1.926a2.996 2.996 0 0 1 1.987-.719h.037c.084.001.17.005.256.012 1.427.115 2.616 1.291 2.705 2.678.008.121.006.221.001.419v.02c-.003.116-.007.271-.01.488a.528.528 0 1 1-1.056-.015l.009-.435.001-.082.002-.063c.003-.124.004-.19 0-.264-.057-.876-.82-1.62-1.737-1.693a2.257 2.257 0 0 0-.182-.009 1.953 1.953 0 0 0-1.33.469 1.82 1.82 0 0 0-.64 1.206c-.005.085-.01.686-.007 2.1Zm1.266 4.781h1.366l-.208-1.694a.767.767 0 0 0 .332-.628c0-.429-.362-.777-.807-.777-.446 0-.807.348-.807.777 0 .258.131.487.332.628l-.208 1.694Z" fill="#fff"/></g><g fill-rule="evenodd" clip-rule="evenodd"><path d="M8.205 480h13.59c1.114 0 1.519.116 1.926.334.407.218.727.538.945.945.218.407.334.811.334 1.926v13.59c0 1.115-.116 1.519-.334 1.926a2.275 2.275 0 0 1-.945.945c-.407.218-.811.334-1.926.334H8.205c-1.115 0-1.519-.116-1.926-.334a2.275 2.275 0 0 1-.945-.945c-.218-.407-.334-.811-.334-1.926v-13.59c0-1.115.116-1.519.334-1.926.218-.407.538-.727.945-.945.407-.218.811-.334 1.926-.334Z" fill="#4A7AAB"/><path d="M15.138 483.501a.587.587 0 0 0-.476 0l-5.03 2.236a.585.585 0 0 0-.348.535v3.354c0 3.38 2.337 6.51 5.477 7.276a.567.567 0 0 0 .278 0c3.14-.766 5.477-3.896 5.477-7.276v-3.354a.585.585 0 0 0-.347-.535l-5.031-2.236Zm-4.684 3.151 4.446-1.976 4.446 1.976v2.974c0 2.801-1.91 5.409-4.446 6.104-2.536-.695-4.446-3.303-4.446-6.104v-2.974Z" fill="#fff"/><path d="M15.693 492.107h-1.805l.276-2.237a1.014 1.014 0 0 1-.439-.83c0-.567.477-1.026 1.066-1.026.588 0 1.065.459 1.065 1.026 0 .341-.172.643-.438.83l.275 2.237Z" fill="#fff"/></g><path fill-rule="evenodd" clip-rule="evenodd" d="M17.61 116.2h5.98c.49 0 .668.051.847.147.18.096.32.236.416.416.096.179.147.357.147.847v5.98c0 .49-.051.668-.147.847a.997.997 0 0 1-.416.416c-.179.096-.357.147-.847.147h-5.98c-.49 0-.668-.051-.847-.147a.997.997 0 0 1-.416-.416c-.096-.179-.147-.357-.147-.847v-5.98c0-.49.051-.668.147-.847a.997.997 0 0 1 .416-.416c.179-.096.357-.147.847-.147Z" fill="#F5C5B3"/><path fill-rule="evenodd" clip-rule="evenodd" d="M6.41 105h5.98c.49 0 .668.051.847.147.18.096.32.236.416.416.096.179.147.357.147.847v17.18c0 .49-.051.668-.147.847a.997.997 0 0 1-.416.416c-.179.096-.357.147-.847.147H6.41c-.49 0-.668-.051-.847-.147a.997.997 0 0 1-.416-.416c-.096-.179-.147-.357-.147-.847v-17.18c0-.49.051-.668.147-.847a.997.997 0 0 1 .416-.416c.179-.096.357-.147.847-.147Z" fill="#EE6C4D"/><path fill-rule="evenodd" clip-rule="evenodd" d="M17.61 105h5.98c.49 0 .668.051.847.147.18.096.32.236.416.416.096.179.147.357.147.847v5.98c0 .49-.051.668-.147.847a.997.997 0 0 1-.416.416c-.179.096-.357.147-.847.147h-5.98c-.49 0-.668-.051-.847-.147a.997.997 0 0 1-.416-.416c-.096-.179-.147-.357-.147-.847v-5.98c0-.49.051-.668.147-.847a.997.997 0 0 1 .416-.416c.179-.096.357-.147.847-.147Z" fill="#F5C5B3"/><path fill-rule="evenodd" clip-rule="evenodd" d="m19.079 110.549 1.045-2.708c.07-.178.197-.241.395-.241h.192c.182 0 .345.043.434.29l.976 2.659c.03.077.079.217.079.304 0 .193-.173.347-.38.347-.177 0-.305-.063-.364-.217l-.208-.579h-1.301l-.212.579c-.055.154-.168.217-.36.217-.222 0-.375-.135-.375-.347 0-.087.05-.227.079-.304Zm1.992-.695-.459-1.395h-.01l-.478 1.395h.947ZM19.2 121.747v-2.494c0-.344.177-.453.447-.453h1.014c.558 0 1.223.127 1.223.878a.726.726 0 0 1-.47.69v.009c.353.095.586.35.586.817 0 .713-.572 1.006-1.233 1.006h-1.12c-.27 0-.447-.109-.447-.453Zm.763-1.058v.916h.642c.297 0 .632-.061.632-.453 0-.411-.353-.463-.725-.463h-.55Zm0-1.322v.831h.628c.358 0 .53-.147.53-.416 0-.326-.27-.415-.553-.415h-.605Z" fill="#B63C23"/><path d="m9.4 110.634 1.815 1.83a.34.34 0 0 0 .485 0 .348.348 0 0 0 0-.489l-2.058-2.074a.34.34 0 0 0-.484 0L7.1 111.975a.348.348 0 0 0 0 .489.34.34 0 0 0 .485 0l1.815-1.83ZM9.4 119.334l1.815-1.83a.34.34 0 0 1 .485 0 .348.348 0 0 1 0 .489l-2.058 2.074a.34.34 0 0 1-.484 0L7.1 117.993a.348.348 0 0 1 0-.489.34.34 0 0 1 .485 0l1.815 1.83Z" fill="#fff"/><ellipse cx="9.4" cy="114.984" rx="1.029" ry="1.037" fill="#fff"/><path fill-rule="evenodd" clip-rule="evenodd" d="M40.234 34.085c.614-1.061 1.456-1.997 2.577-2.552L50 38.881c-.81 1.869-2.491 2.972-3.588 3.691l-.254.168c-1.526 1.012-4.129 2.853-5.925 6.26-1.795-3.407-4.398-5.248-5.924-6.26l-.252-.167C32.568 41.598 30 39.914 30 36.57c0-3.499 2.917-5.57 5.297-5.57 2.378 0 3.949 1.381 4.937 3.085Zm2.173-1.695v6.49h6.327l-6.327-6.49Z" fill="#4D90FE"/><path fill-rule="evenodd" clip-rule="evenodd" d="M40.234 9.085c.614-1.061 1.456-1.997 2.577-2.552L50 13.881c-.81 1.869-2.491 2.972-3.588 3.691l-.254.168c-1.526 1.012-4.129 2.853-5.925 6.26-1.795-3.407-4.398-5.248-5.924-6.26l-.252-.167C32.568 16.598 30 14.914 30 11.57 30 8.071 32.917 6 35.297 6c2.378 0 3.949 1.381 4.937 3.085Zm2.173-1.695v6.49h6.327l-6.327-6.49Z" fill="#E5322D"/><path fill-rule="evenodd" clip-rule="evenodd" d="M31.135 70.307h7.029l-1.048 2.35h-1.38a.377.377 0 0 0-.385.37v.605c0 .203.173.368.386.368h8.502a.377.377 0 0 0 .385-.368v-.606a.377.377 0 0 0-.385-.368h-1.38l-1.047-2.351h7.053c.627 0 1.135-.486 1.135-1.085V57.085c0-.6-.508-1.085-1.135-1.085h-17.73c-.627 0-1.135.486-1.135 1.085v12.137c0 .6.508 1.085 1.135 1.085Zm.865-2.79v-9.813h16.054v9.814H32ZM43.429 80H36.57C35.15 80 34 81.218 34 82.727v14.546c0 1.509 1.149 2.727 2.571 2.727h6.858C44.85 100 46 98.782 46 97.273V82.727C46 81.218 44.851 80 43.429 80Zm-1.715 18.182h-3.428v-.91h3.428v.91ZM35.5 95.454h9V82.727h-9v12.727ZM40.234 209.085c.614-1.061 1.456-1.997 2.577-2.552L50 213.881c-.81 1.869-2.491 2.972-3.588 3.691l-.254.168c-1.526 1.012-4.129 2.853-5.925 6.26-1.795-3.407-4.398-5.248-5.924-6.26l-.252-.167c-1.489-.975-4.057-2.659-4.057-6.003 0-3.499 2.917-5.57 5.297-5.57 2.378 0 3.949 1.381 4.937 3.085Zm2.173-1.695v6.49h6.327l-6.327-6.49ZM37.4 269.6l-4.6-4.6 4.6-4.6L36 259l-6 6 6 6 1.4-1.4Zm5.2 0 4.6-4.6-4.6-4.6L44 259l6 6-6 6-1.4-1.4Z" fill="#677897"/><path fill-rule="evenodd" clip-rule="evenodd" d="M62.499 146H55.5a.458.458 0 0 0-.352.164.565.565 0 0 0-.148.391.563.563 0 0 0 .148.391l3.5 3.888a.46.46 0 0 0 .351.166.46.46 0 0 0 .352-.166l3.5-3.888a.562.562 0 0 0 .149-.391.565.565 0 0 0-.149-.391.458.458 0 0 0-.352-.164Z" fill="#161616"/><path fill-rule="evenodd" clip-rule="evenodd" d="M62.499 156H55.5a.458.458 0 0 0-.352.164.565.565 0 0 0-.148.391.563.563 0 0 0 .148.391l3.5 3.888a.46.46 0 0 0 .351.166.46.46 0 0 0 .352-.166l3.5-3.888a.562.562 0 0 0 .149-.391.565.565 0 0 0-.149-.391.458.458 0 0 0-.352-.164Z" fill="#fff"/><path fill-rule="evenodd" clip-rule="evenodd" d="M62.499 166H55.5a.458.458 0 0 0-.352.164.565.565 0 0 0-.148.391.563.563 0 0 0 .148.391l3.5 3.888a.46.46 0 0 0 .351.166.46.46 0 0 0 .352-.166l3.5-3.888a.562.562 0 0 0 .149-.391.565.565 0 0 0-.149-.391.458.458 0 0 0-.352-.164Z" fill="#E5322D"/><circle cx="67" cy="205" r="12" fill="#383E45"/><path d="m60.85 208.915 5.206-5.201c-.515-1.315-.229-2.858.858-3.944 1.144-1.143 2.861-1.371 4.234-.743l-2.46 2.458 1.716 1.714 2.518-2.457c.686 1.371.4 3.086-.744 4.23-1.087 1.085-2.632 1.37-3.948.856l-5.206 5.202a.553.553 0 0 1-.802 0l-1.315-1.314c-.287-.229-.287-.629-.058-.8l.001-.001Z" fill="#fff"/><g clip-path="url(#a)" fill-rule="evenodd" clip-rule="evenodd" fill="#161616"><path d="M55 14a1 1 0 0 0 1 1h22a1 1 0 1 0 0-2H56a1 1 0 0 0-1 1ZM55 6a1 1 0 0 0 1 1h22a1 1 0 1 0 0-2H56a1 1 0 0 0-1 1ZM55 22a1 1 0 0 0 1 1h22a1 1 0 1 0 0-2H56a1 1 0 0 0-1 1Z"/></g><g fill="#161616"><path fill-rule="evenodd" clip-rule="evenodd" d="M88.086 28H56.914C55.858 28 55 28.927 55 30.069V51.31c0 1.142.858 2.07 1.914 2.07h31.172c1.056 0 1.914-.928 1.914-2.07V30.07C90 28.927 89.142 28 88.086 28Zm-7.93 29.793H77.97a2.198 2.198 0 0 1-2.188-2.207V54H69.22v1.586c0 1.218-.98 2.207-2.188 2.207h-2.187c-.605 0-1.094.494-1.094 1.104 0 .61.489 1.103 1.094 1.103h15.312c.605 0 1.094-.493 1.094-1.103s-.489-1.104-1.094-1.104Zm-22.969-6.62h30.626V30.206H57.186v20.965Z"/><path d="M57.188 47.862h30.624v4.414H57.189v-4.414ZM76.936 39.81a.911.911 0 0 1-.003 1.263l-3.637 3.67a.895.895 0 0 1-1.272 0l-3.637-3.67a.895.895 0 0 1 0-1.266.876.876 0 0 1 1.255 0l2.129 2.155v-7.556c-.001-.493.398-.889.889-.889.49 0 .88.395.88.89v7.556l2.138-2.156a.877.877 0 0 1 1.258.003Z"/></g><path opacity=".87" fill-rule="evenodd" clip-rule="evenodd" d="M64 267c-4.968 0-9 4.032-9 9s4.032 9 9 9 9-4.032 9-9-4.032-9-9-9Zm0 2.7c1.494 0 2.7 1.206 2.7 2.7 0 1.494-1.206 2.7-2.7 2.7a2.696 2.696 0 0 1-2.7-2.7c0-1.494 1.206-2.7 2.7-2.7Zm0 12.6c-2.25 0-4.24-1.097-5.4-2.76.027-1.706 3.6-2.64 5.4-2.64 1.79 0 5.373.935 5.4 2.64-1.16 1.663-3.15 2.76-5.4 2.76Z" fill="#fff"/><path fill-rule="evenodd" clip-rule="evenodd" d="M79.334 252.944a4.45 4.45 0 0 0-4.443 4.45 4.442 4.442 0 0 0 8.884 0 4.45 4.45 0 0 0-4.441-4.45Zm17.006-9.829a22.217 22.217 0 0 0-12.083-7.385c-.138 1.493-.3 2.983-.489 4.47a17.777 17.777 0 0 1 9.172 5.78c.443.52 1.07.787 1.7.787.508 0 1.013-.165 1.434-.52a2.216 2.216 0 0 0 .266-3.132Zm-21.93-7.385a22.217 22.217 0 0 0-12.083 7.385 2.222 2.222 0 1 0 3.4 2.865 17.802 17.802 0 0 1 9.169-5.78 127.228 127.228 0 0 1-.486-4.47Zm1.057 8.923a13.329 13.329 0 0 0-6.34 4.176 2.217 2.217 0 0 0 .273 3.124c.413.356.919.522 1.426.522.637 0 1.265-.268 1.708-.789a8.845 8.845 0 0 1 3.546-2.55 708.32 708.32 0 0 1-.613-4.483Zm14.073 4.176a13.304 13.304 0 0 0-6.344-4.178 714.609 714.609 0 0 1-.61 4.483 8.85 8.85 0 0 1 3.547 2.552c.442.52 1.072.79 1.707.79.507 0 1.013-.167 1.426-.523a2.213 2.213 0 0 0 .274-3.124Zm13.607-11.422a31.084 31.084 0 0 0-18.62-10.643c-.017 1.326-.04 2.95-.078 4.483a26.67 26.67 0 0 1 15.298 9.017 2.186 2.186 0 0 0 1.7.794 2.224 2.224 0 0 0 1.7-3.652m-29.005-10.641a31.07 31.07 0 0 0-18.622 10.643 2.223 2.223 0 0 0 1.7 3.652c.637 0 1.267-.267 1.7-.787a26.652 26.652 0 0 1 15.302-9.026 401.16 401.16 0 0 1-.08-4.482Zm7.732 8.832c-.156 3.082-1.05 12.278-1.05 12.278-.135 1.524-.61 1.943-1.493 1.943-.88 0-1.353-.419-1.489-1.943 0 0-.9-9.196-1.05-12.278-.103-2.135-.135-8.556-.135-8.556 0-2.68.982-4.042 2.674-4.042s2.679 1.363 2.679 4.041c0 0-.028 6.42-.135 8.556" fill="#AB0004"/><path fill-rule="evenodd" clip-rule="evenodd" d="M41.568 312h6.29c.72 0 .981.075 1.245.216.263.141.47.347.61.611.141.263.216.524.216 1.245v8.785c0 .721-.075.982-.216 1.246-.14.263-.347.47-.61.61-.264.141-.525.216-1.245.216h-8.786c-.72 0-.982-.075-1.245-.216a1.463 1.463 0 0 1-.611-.61c-.141-.264-.216-.525-.216-1.246v-4.048l4.568-1.57V312Z" fill="#E1E1E1"/><path d="M47.567 319.784a.35.35 0 0 0-.353-.347.35.35 0 0 0-.354.347v1.537l-2.057-2.019a.357.357 0 0 0-.5 0 .342.342 0 0 0 0 .49l2.058 2.019h-1.566a.35.35 0 0 0-.353.347.35.35 0 0 0 .353.346h2.419a.35.35 0 0 0 .353-.346v-2.374Z" fill="#383E45"/><path fill-rule="evenodd" clip-rule="evenodd" d="m30.003 315.4-.003-.001v-7.725L36.927 305l3.841 1.293v10.346l-3.84 1.239-6.916-2.475 6.958.905v-9.063l-4.488 1.036v6.085l-2.479 1.034Z" fill="#626870"/><path fill-rule="evenodd" clip-rule="evenodd" d="M15.867 505H7.074c-.721 0-.983.075-1.246.216-.264.141-.471.348-.612.612-.14.263-.216.525-.216 1.246v8.793c0 .722.075.983.216 1.247.141.263.348.47.612.611.263.141.525.216 1.246.216h4.194v-3.821c0-.992.104-1.351.297-1.714.194-.362.479-.647.841-.841.363-.193.722-.297 1.714-.297h3.821v-4.194c0-.721-.075-.983-.216-1.246a1.47 1.47 0 0 0-.611-.612c-.264-.141-.526-.216-1.247-.216Z" fill="#E7EDF4"/><path d="M10.588 507.925a.34.34 0 1 0-.678 0v1.505l-1.978-1.978a.34.34 0 0 0-.48.48l1.978 1.977H7.925a.34.34 0 0 0 0 .679h2.324a.341.341 0 0 0 .339-.339v-2.324Z" fill="#1D4772"/><path fill-rule="evenodd" clip-rule="evenodd" d="M14.133 512.059h8.793c.721 0 .983.075 1.247.216.263.141.47.348.611.611.14.264.216.525.216 1.247v8.793c0 .721-.075.983-.216 1.246a1.47 1.47 0 0 1-.611.612c-.264.141-.526.216-1.247.216h-8.793c-.721 0-.983-.075-1.247-.216a1.47 1.47 0 0 1-.611-.612c-.141-.263-.216-.525-.216-1.246v-8.793c0-.722.075-.983.216-1.247.14-.263.348-.47.611-.611.264-.141.526-.216 1.247-.216Z" fill="#4A7AAB"/><path fill-rule="evenodd" clip-rule="evenodd" d="m14.858 520.624 1.72-4.529c.044-.115.116-.295.396-.295.166 0 .375.137.375.367a.719.719 0 0 1-.058.238l-1.72 4.529c-.044.115-.116.295-.397.295-.165 0-.374-.137-.374-.367 0-.08.029-.159.058-.238Zm2.883-.396 1.526-4.039c.1-.267.288-.36.576-.36h.28c.267 0 .505.065.634.432l1.426 3.967c.043.115.115.324.115.454 0 .288-.252.518-.554.518-.26 0-.447-.094-.533-.324l-.302-.864h-1.901l-.31.864c-.079.23-.245.324-.525.324-.324 0-.547-.202-.547-.518 0-.13.072-.339.115-.454Zm2.909-1.037-.67-2.081h-.015l-.698 2.081h1.383Z" fill="#fff"/><path fill-rule="evenodd" clip-rule="evenodd" d="M14.143 550h8.785c.72 0 .982-.075 1.245-.216.264-.141.47-.347.611-.611.141-.263.216-.524.216-1.245v-8.785c0-.721-.075-.982-.216-1.246a1.463 1.463 0 0 0-.61-.61c-.264-.141-.525-.216-1.246-.216h-4.19v3.818c0 .99-.104 1.349-.297 1.712a2.022 2.022 0 0 1-.84.84c-.363.193-.722.296-1.712.296H12.07v4.191c0 .721.075.982.216 1.245.14.264.347.47.61.611.264.141.525.216 1.245.216Z" fill="#FFF3B6"/><path d="M22.576 544.855a.35.35 0 0 0-.353-.346.35.35 0 0 0-.354.346v1.537l-2.057-2.019a.357.357 0 0 0-.5 0 .342.342 0 0 0 0 .49l2.058 2.02h-1.566a.35.35 0 0 0-.353.346.35.35 0 0 0 .354.347h2.418a.351.351 0 0 0 .353-.347v-2.374Z" fill="#DAB400"/><path fill-rule="evenodd" clip-rule="evenodd" d="M7.072 530h8.785c.72 0 .982.075 1.245.216.264.141.47.347.611.611.141.263.216.524.216 1.245v8.785c0 .721-.075.982-.216 1.246-.14.263-.347.47-.61.61-.264.141-.525.216-1.246.216H7.072c-.72 0-.982-.075-1.245-.216a1.464 1.464 0 0 1-.611-.61c-.141-.264-.216-.525-.216-1.246v-8.785c0-.721.075-.982.216-1.245.14-.264.347-.47.61-.611.264-.141.525-.216 1.246-.216Z" fill="#FFD400"/><path fill-rule="evenodd" clip-rule="evenodd" d="M6.289 535.326v2.212c0 .186.121.311.311.311s.312-.125.312-.311v-.912h1.132v.912c0 .186.122.311.312.311s.312-.125.312-.311v-2.212c0-.186-.122-.311-.312-.311s-.312.125-.312.311v.775H6.912v-.775c0-.186-.122-.311-.312-.311s-.311.125-.311.311Zm3.625.262v1.95c0 .186.122.311.312.311s.311-.125.311-.311v-1.95h.59c.178 0 .322-.091.322-.262s-.144-.262-.323-.262H9.325c-.179 0-.323.091-.323.262s.144.262.323.262h.589Zm1.858 1.957v-2.223c0-.25.171-.307.338-.307h.183c.194 0 .285.076.35.285l.543 1.755h.007l.536-1.755c.065-.209.156-.285.35-.285h.175c.167 0 .338.057.338.307v2.223c0 .156-.076.304-.278.304-.201 0-.277-.148-.277-.304v-1.694h-.008l-.581 1.816c-.042.129-.137.182-.266.182-.13 0-.224-.053-.266-.182l-.581-1.816h-.008v1.694c0 .156-.076.304-.277.304-.202 0-.278-.148-.278-.304Zm3.386-2.219v2.109c0 .278.144.365.365.365h1.3c.178 0 .322-.091.322-.262s-.144-.262-.323-.262h-1.04v-1.95c0-.186-.122-.311-.312-.311s-.312.125-.312.311Z" fill="#fff"/><path fill-rule="evenodd" clip-rule="evenodd" d="m19.886 600-5.784-3.789H7.609c-.907 0-1.236-.094-1.568-.271a1.838 1.838 0 0 1-.77-.766c-.177-.33-.271-.657-.271-1.561v-11.015c0-.904.094-1.231.272-1.561.177-.331.438-.59.77-.766.331-.177.66-.271 1.567-.271h14.782c.907 0 1.236.094 1.568.271.331.176.592.435.77.766.177.33.271.657.271 1.561v11.015c0 .904-.095 1.231-.272 1.561-.177.331-.438.59-.77.766-.331.177-.66.271-1.567.271h-1.53L19.886 600ZM8.704 584.444v-.74h12.592v.74H8.704Zm0 1.852v.741h12.592v-.741H8.704Zm0 3.334v-.741h12.592v.741H8.704Zm0 1.851v.741h6.666v-.741H8.704Z" fill="#AB6993"/><g fill-rule="evenodd" clip-rule="evenodd"><path d="M17.596 625H7.404c-.836 0-1.14-.087-1.445-.25a1.71 1.71 0 0 1-.709-.709c-.163-.306-.25-.609-.25-1.445v-10.192c0-.836.087-1.139.25-1.445a1.71 1.71 0 0 1 .71-.709c.305-.163.608-.25 1.444-.25h10.192c.836 0 1.14.087 1.445.25.305.164.545.404.709.709.163.306.25.609.25 1.445v10.192c0 .836-.087 1.139-.25 1.445a1.711 1.711 0 0 1-.71.709c-.305.163-.608.25-1.444.25Z" fill="#4A7AAB"/><path d="m8.064 620.424 1.912-5.561c.048-.142.128-.363.44-.363.185 0 .417.168.417.451 0 .097-.032.194-.064.292l-1.913 5.561c-.048.142-.128.363-.44.363a.442.442 0 0 1-.416-.451c0-.098.032-.195.064-.292Zm3.204-.486 1.697-4.961c.112-.327.32-.442.64-.442h.312c.296 0 .56.08.704.531l1.584 4.872c.048.141.128.398.128.557 0 .353-.28.636-.616.636-.288 0-.496-.115-.592-.398l-.336-1.061h-2.112l-.345 1.061c-.088.283-.272.398-.584.398-.36 0-.608-.247-.608-.636 0-.159.08-.416.128-.557Zm3.233-1.274-.744-2.555h-.016l-.776 2.555H14.5Z" fill="#fff"/><path d="M19.917 605A4.919 4.919 0 0 0 15 609.917a4.918 4.918 0 0 0 9.833 0A4.919 4.919 0 0 0 19.917 605Z" fill="#E7EDF4"/><path d="m19.175 611.958-1.854-1.853.523-.523 1.331 1.327 2.814-2.814.523.527-3.337 3.336Z" fill="#1D4772"/></g><path fill-rule="evenodd" clip-rule="evenodd" d="M30 165c0-5.52 4.47-10 9.99-10 5.53 0 10.01 4.48 10.01 10s-4.48 10-10.01 10c-5.52 0-9.99-4.48-9.99-10Zm13.97-4h2.95a8.03 8.03 0 0 0-4.33-3.56c.6 1.11 1.06 2.31 1.38 3.56ZM40 157.04c.83 1.2 1.48 2.53 1.91 3.96h-3.82c.43-1.43 1.08-2.76 1.91-3.96ZM32 165c0 .69.1 1.36.26 2h3.38c-.08-.66-.14-1.32-.14-2 0-.68.06-1.34.14-2h-3.38c-.16.64-.26 1.31-.26 2Zm1.08 4h2.95c.32 1.25.78 2.45 1.38 3.56a7.987 7.987 0 0 1-4.33-3.56Zm0-8h2.95c.32-1.25.78-2.45 1.38-3.56-1.84.63-3.37 1.9-4.33 3.56ZM40 172.96c-.83-1.2-1.48-2.53-1.91-3.96h3.82c-.43 1.43-1.08 2.76-1.91 3.96ZM37.5 165c0 .68.07 1.34.16 2h4.68c.09-.66.16-1.32.16-2 0-.68-.07-1.35-.16-2h-4.68c-.09.65-.16 1.32-.16 2Zm5.09 7.56c.6-1.11 1.06-2.31 1.38-3.56h2.95a8.03 8.03 0 0 1-4.33 3.56ZM44.5 165c0 .68-.06 1.34-.14 2h3.38c.16-.64.26-1.31.26-2s-.1-1.36-.26-2h-3.38c.08.66.14 1.32.14 2Z" fill="#677897"/><path fill-rule="evenodd" clip-rule="evenodd" d="M30 290c0-5.52 4.47-10 9.99-10 5.53 0 10.01 4.48 10.01 10s-4.48 10-10.01 10c-5.52 0-9.99-4.48-9.99-10Zm13.97-4h2.95a8.03 8.03 0 0 0-4.33-3.56c.6 1.11 1.06 2.31 1.38 3.56ZM40 282.04c.83 1.2 1.48 2.53 1.91 3.96h-3.82c.43-1.43 1.08-2.76 1.91-3.96ZM32 290c0 .69.1 1.36.26 2h3.38c-.08-.66-.14-1.32-.14-2 0-.68.06-1.34.14-2h-3.38c-.16.64-.26 1.31-.26 2Zm1.08 4h2.95c.32 1.25.78 2.45 1.38 3.56a7.987 7.987 0 0 1-4.33-3.56Zm0-8h2.95c.32-1.25.78-2.45 1.38-3.56-1.84.63-3.37 1.9-4.33 3.56ZM40 297.96c-.83-1.2-1.48-2.53-1.91-3.96h3.82c-.43 1.43-1.08 2.76-1.91 3.96ZM37.5 290c0 .68.07 1.34.16 2h4.68c.09-.66.16-1.32.16-2 0-.68-.07-1.35-.16-2h-4.68c-.09.65-.16 1.32-.16 2Zm5.09 7.56c.6-1.11 1.06-2.31 1.38-3.56h2.95a8.03 8.03 0 0 1-4.33 3.56ZM44.5 290c0 .68-.06 1.34-.14 2h3.38c.16-.64.26-1.31.26-2s-.1-1.36-.26-2h-3.38c.08.66.14 1.32.14 2Z" fill="#383E45"/><g fill-rule="evenodd" clip-rule="evenodd" fill="#677897"><path d="M42 112a1 1 0 0 0 1 1h6a1 1 0 0 0 1-1v-6a1 1 0 0 0-1-1h-6a1 1 0 0 0-1 1v6ZM30 112a1 1 0 0 0 1 1h6a1 1 0 0 0 1-1v-6a1 1 0 0 0-1-1h-6a1 1 0 0 0-1 1v6ZM42 124a1 1 0 0 0 1 1h6a1 1 0 0 0 1-1v-6a1 1 0 0 0-1-1h-6a1 1 0 0 0-1 1v6ZM30 124a1 1 0 0 0 1 1h6a1 1 0 0 0 1-1v-6a1 1 0 0 0-1-1h-6a1 1 0 0 0-1 1v6Z"/></g><path fill-rule="evenodd" clip-rule="evenodd" d="M40 180c-5.52 0-10 4.48-10 10s4.48 10 10 10 10-4.48 10-10-4.48-10-10-10Zm-.122 4.738c-1.708 0-3.276 1.218-3.276 2.59 0 .56.42.854.91.854.632 0 .818-.4 1.017-.828.23-.492.475-1.02 1.433-1.02.84 0 1.344.448 1.344 1.204 0 .653-.554 1.08-1.136 1.529-.64.494-1.314 1.014-1.314 1.887 0 .448.294.938.896.938.659 0 .79-.349.934-.726.058-.152.117-.309.214-.45.135-.198.419-.401.75-.636.766-.546 1.784-1.271 1.784-2.542 0-1.974-1.764-2.8-3.556-2.8Zm-.07 8.064c-.63 0-1.148.518-1.148 1.148 0 .63.518 1.148 1.148 1.148.63 0 1.148-.518 1.148-1.148 0-.63-.518-1.148-1.148-1.148ZM48 132H32c-1.11 0-1.99.89-1.99 2L30 146c0 1.11.89 2 2 2h16c1.11 0 2-.89 2-2v-12c0-1.11-.89-2-2-2Zm0 14H32v-6h16v6Zm0-10H32v-2h16v2ZM48 232H32c-1.1 0-1.99.9-1.99 2L30 246c0 1.1.9 2 2 2h16c1.1 0 2-.9 2-2v-12c0-1.1-.9-2-2-2Zm0 4-8 5-8-5v-2l8 5 8-5v2ZM61.784 182.495l-4.526 4.3a.766.766 0 0 1-1.042 0 .676.676 0 0 1 0-.99L60.22 182l-4.005-3.805a.676.676 0 0 1 0-.99.766.766 0 0 1 1.042 0l4.526 4.3A.681.681 0 0 1 62 182a.681.681 0 0 1-.216.495Z" fill="#677897"/><path d="M50 358.352v5.509a2.369 2.369 0 0 1-2.381 2.363h-6.43c-.127 0-.23-.001-.317-.003a2.73 2.73 0 0 0-.232.002 3.236 3.236 0 0 0-.242.208l-.13.117-1.82 1.637a.512.512 0 0 1-.539.086.499.499 0 0 1-.306-.448v-5.189s4.794 2.828 4.794 3.099v7.764a.482.482 0 0 1-.489.484.504.504 0 0 1-.334-.133l-2.174-1.969h-6.991c-1.322 0-2.409-1.04-2.409-2.345v-5.508c0-1.305 1.087-2.37 2.409-2.37h5.194v-3.304c0-1.304 1.096-2.352 2.417-2.352h7.599A2.36 2.36 0 0 1 50 358.352Z" fill="#677897"/><path d="M33.177 366.169c-.53 0-.96.448-.96 1 0 .553.43 1 .96 1h.08c.53 0 .96-.447.96-1 0-.552-.43-1-.96-1h-.08ZM36.177 366.169c-.53 0-.96.448-.96 1 0 .553.43 1 .96 1h.08c.53 0 .96-.447.96-1 0-.552-.43-1-.96-1h-.08ZM39.5 358.401c0-.505.397-.91.869-.91h7.297c.46 0 .834.394.834.91v5.659c0 .519-.377.921-.834.921H41.49c-.117 0-.203 0-.272-.002-.694-.015-.934.092-1.479.623l-.075.065-.054.05-.11.105v-7.421Z" fill="#fff"/><path d="M45 360.146c0 .678-.446 1.09-.772 1.392-.124.115-.354.324-.353.402.002.306-.22.551-.498.551h-.004c-.275 0-.5-.237-.501-.542-.005-.601.392-.96.71-1.256.25-.232.414-.395.414-.545 0-.302-.222-.548-.496-.548s-.496.246-.496.548c0 .306-.225.555-.502.555s-.502-.249-.502-.555c0-.914.673-1.657 1.5-1.657.827-.001 1.5.741 1.5 1.655ZM43.494 362.991a.493.493 0 0 0-.494.499v.003c0 .276.215.498.494.498.28 0 .506-.226.506-.501a.502.502 0 0 0-.506-.499Z" fill="#677897"/><path fill-rule="evenodd" clip-rule="evenodd" d="m30.381 396.242 8.168-8.202c-.808-2.074-.359-4.507 1.346-6.22 1.796-1.803 4.488-2.163 6.642-1.172l-2.98 2.993a1.252 1.252 0 0 0 0 1.767l.936.939a1.252 1.252 0 0 0 1.765.01l3.062-3.005c1.077 2.164.628 4.868-1.167 6.671-1.705 1.712-4.129 2.163-6.193 1.352l-8.168 8.202a.864.864 0 0 1-1.256 0l-2.065-2.073c-.449-.361-.449-.991-.09-1.262ZM49.69 410.101a1.585 1.585 0 0 0-.709-.503c.016.273-.004.496-.06.668l-3.603 11.566c-.064.203-.204.365-.42.487a1.36 1.36 0 0 1-.673.181H33.141c-.961 0-1.537-.273-1.73-.82-.08-.211-.076-.379.012-.504.088-.117.24-.176.457-.176h10.436c.745 0 1.26-.135 1.543-.404.285-.27.571-.869.86-1.799l3.29-10.617c.176-.579.104-1.086-.216-1.524-.32-.437-.777-.656-1.37-.656h-9.139c-.104 0-1.015.002-1.17.006a.817.817 0 0 0-.433.135l-.043.027a.688.688 0 0 0-.048.032 1.407 1.407 0 0 0-.13.121l-.098.095c-.246.24-5.236 13.896-5.236 13.928-.176.469-.168.965.024 1.488.225.609.623 1.123 1.195 1.541.573.418 1.167.627 1.784.627h11.085c.52 0 1.01-.17 1.47-.51.461-.34.768-.759.92-1.26l3.302-10.617c.176-.562.105-1.066-.216-1.512Zm-12.778.024.252-.75a.522.522 0 0 1 .198-.264.51.51 0 0 1 .306-.111h7.303c.112 0 .192.037.24.111.047.074.056.162.024.264l-.253.75a.53.53 0 0 1-.198.264.51.51 0 0 1-.306.111h-7.302c-.112 0-.192-.037-.24-.111a.3.3 0 0 1-.024-.264Zm-.745 2.25-.252.75a.3.3 0 0 0 .024.264c.048.074.128.111.24.111h7.302a.51.51 0 0 0 .306-.111.53.53 0 0 0 .198-.264l.253-.75c.032-.102.024-.189-.024-.264-.048-.074-.128-.111-.24-.111h-7.302a.51.51 0 0 0-.307.111.527.527 0 0 0-.198.264Z" fill="#677897"/><path d="M49 435.219a.818.818 0 0 0-.35-.682l-.08-.054-8.204-4.391a.774.774 0 0 0-.732 0l-8.204 4.391-.017.008a.745.745 0 0 0-.413.73v9.559a.82.82 0 0 0 .427.724l8.206 4.391.019.011a.693.693 0 0 0 .715-.011l8.206-4.391a.82.82 0 0 0 .427-.724v-9.561Z" fill="#677897"/><path d="m40 432.208 6 3-6 3-6-3 6-3ZM32.897 437.19l6 3.142v6.858l-6-3.142v-6.858ZM47.103 444.048l-6 3.142v-6.858l6-3.142v6.858Z" fill="#fff"/><path d="M36.345 494.924v.497c0 .663.455 1.219 1.078 1.413.209 1.171 1.266 2.133 2.542 2.133 1.277 0 2.334-.962 2.543-2.133.623-.194 1.078-.75 1.078-1.413v-.497h-7.241Z" fill="#677897"/><path d="M38.83 482.114c-1.965.395-3.546 1.93-3.952 3.768l3.953-3.768Zm0 0c3.367-.681 6.377 1.756 6.377 4.851 0 1.175-.473 2.333-1.31 3.251-.247.27-.424.607-.552.905-.134.311-.245.65-.336.973-.08.285-.148.572-.205.836h-5.671c-.055-.262-.12-.545-.198-.826a7.713 7.713 0 0 0-.327-.963c-.125-.293-.3-.629-.548-.898m2.77-8.129-2.77 8.129m0 0a4.8 4.8 0 0 1-1.182-4.361l1.181 4.361Z" stroke="#677897" stroke-width="2"/><path d="M39.518 492.716v-2.16c0-.05-.01-.1-.03-.147L38.9 489l.99.238a.455.455 0 0 0 .2 0l.99-.238-.587 1.409a.382.382 0 0 0-.03.147v2.16h-.946Z" fill="#677897" stroke="#677897" stroke-linejoin="round"/><path d="M30.517 487.297h1.07a.508.508 0 0 0 .516-.497.507.507 0 0 0-.517-.497h-1.069a.507.507 0 0 0-.517.497c0 .274.231.497.517.497ZM49.453 486.303h-1.069a.507.507 0 0 0-.517.497c0 .274.232.497.517.497h1.07a.508.508 0 0 0 .517-.497.507.507 0 0 0-.518-.497ZM31.212 491.025a.53.53 0 0 0 .707.182l.896-.497a.487.487 0 0 0 .19-.679.528.528 0 0 0-.707-.182l-.896.497a.486.486 0 0 0-.19.679ZM48.758 482.574a.53.53 0 0 0-.707-.182l-.896.498a.486.486 0 0 0-.189.679.53.53 0 0 0 .707.182l.896-.497a.488.488 0 0 0 .19-.68ZM31.402 483.254l.896.497a.53.53 0 0 0 .707-.182.486.486 0 0 0-.19-.679l-.896-.498a.53.53 0 0 0-.707.182.488.488 0 0 0 .19.68ZM46.966 490.031a.487.487 0 0 0 .19.679l.895.497a.53.53 0 0 0 .707-.182.486.486 0 0 0-.19-.679l-.895-.497a.528.528 0 0 0-.707.182Z" fill="#677897"/><path fill-rule="evenodd" clip-rule="evenodd" d="M40 510h10v14H30v-18h10v4Zm-8 12h2v-2h-2v2Zm2-4h-2v-2h2v2Zm-2-4h2v-2h-2v2Zm2-4h-2v-2h2v2Zm2 12h2v-2h-2v2Zm2-4h-2v-2h2v2Zm-2-4h2v-2h-2v2Zm2-4h-2v-2h2v2Zm10 12v-10h-8v2h2v2h-2v2h2v2h-2v2h8Zm-2-8h-2v2h2v-2Zm-2 4h2v2h-2v-2ZM30 537.333 40 532l10 5.333v7.111h-1.818v-6.142L40 542.667l-10-5.334Zm3.636 7.271v-3.555L40 544.444l6.364-3.395v3.555L40 548l-6.364-3.396ZM47.619 339.524h-1.428v-3.81a1.91 1.91 0 0 0-1.905-1.904h-3.81v-1.429a2.382 2.382 0 0 0-4.762 0v1.429h-3.81a1.902 1.902 0 0 0-1.895 1.904v3.619h1.42a2.573 2.573 0 0 1 0 5.143H30v3.619A1.91 1.91 0 0 0 31.905 350h3.619v-1.429a2.573 2.573 0 0 1 5.143 0V350h3.619a1.91 1.91 0 0 0 1.904-1.905v-3.809h1.429a2.382 2.382 0 0 0 0-4.762Z" fill="#677897"/><path d="M8.205 555h13.59c1.114 0 1.519.116 1.926.334.407.218.727.538.945.945.218.407.334.811.334 1.926v13.59c0 1.115-.116 1.519-.334 1.926a2.275 2.275 0 0 1-.945.945c-.407.218-.811.334-1.926.334H8.205c-1.115 0-1.519-.116-1.926-.334a2.275 2.275 0 0 1-.945-.945c-.218-.407-.334-.811-.334-1.926v-13.59c0-1.115.116-1.519.334-1.926.218-.407.538-.727.945-.945.407-.218.811-.334 1.926-.334Z" fill="#AB6993"/><path d="M8.205 555h13.59c1.114 0 1.519.116 1.926.334.407.218.727.538.945.945.218.407.334.811.334 1.926v13.59c0 1.115-.116 1.519-.334 1.926a2.275 2.275 0 0 1-.945.945c-.407.218-.811.334-1.926.334H8.205c-1.115 0-1.519-.116-1.926-.334a2.275 2.275 0 0 1-.945-.945c-.218-.407-.334-.811-.334-1.926v-13.59c0-1.115.116-1.519.334-1.926.218-.407.538-.727.945-.945.407-.218.811-.334 1.926-.334Z" fill="#4A7AAB"/><g fill="#fff"><path d="m11.921 564.134-.164 5.855a.089.089 0 0 0 .165.047l1.871-3.242a1.066 1.066 0 0 1 1.265-1.698 1.065 1.065 0 0 1-.838 1.944l-1.866 3.232a.089.089 0 0 0 .123.12l4.982-3.061a.53.53 0 0 0 .25-.399l.364-3.603a.532.532 0 0 0-.263-.514l-2.158-1.246a.53.53 0 0 0-.577.03l-2.934 2.119a.53.53 0 0 0-.22.416ZM18.53 562.77l-3.185-1.838c-.17-.098-.208-.349-.085-.561l.74-1.283c.123-.212.36-.305.529-.207l3.184 1.839c.17.098.208.349.086.561l-.741 1.283c-.122.212-.359.304-.529.206Z"/></g><path fill-rule="evenodd" clip-rule="evenodd" d="m39.11 458.609 5.58 3.241c.298.173.709.016.919-.35l1.27-2.214c.21-.366.14-.802-.158-.975l-5.58-3.241c-.297-.172-.708-.016-.918.35l-1.27 2.214c-.21.366-.14.802.157.975ZM33 474.267l.194-10.157a.901.901 0 0 1 .377-.718l5.08-3.63a.93.93 0 0 1 1.005-.042l3.78 2.197c.318.184.501.534.468.895l-.576 6.246a.903.903 0 0 1-.43.69l-8.636 5.23a.157.157 0 0 1-.217-.21l3.2-5.577c.811.249 1.706-.068 2.139-.823.505-.88.188-2.016-.708-2.537-.896-.52-2.032-.228-2.538.652-.432.754-.258 1.692.361 2.274l-3.21 5.594a.151.151 0 0 1-.138.076.158.158 0 0 1-.151-.16Z" fill="#677897"/><path fill-rule="evenodd" clip-rule="evenodd" d="M8.205 630h13.59c1.114 0 1.519.116 1.926.334.407.218.727.538.945.945.218.407.334.811.334 1.926v13.59c0 1.115-.116 1.519-.334 1.926a2.275 2.275 0 0 1-.945.945c-.407.218-.811.334-1.926.334H8.205c-1.115 0-1.519-.116-1.926-.334a2.275 2.275 0 0 1-.945-.945c-.218-.407-.334-.811-.334-1.926v-13.59c0-1.115.116-1.519.334-1.926.218-.407.538-.727.945-.945.407-.218.811-.334 1.926-.334Z" fill="#AB6993"/><g fill-rule="evenodd" clip-rule="evenodd" fill="#fff"><path d="M11.253 642.188a.175.175 0 0 1 .278-.082l1.874 1.522a.176.176 0 0 1-.031.294l-2.159 1.087a.49.49 0 0 1-.134.043l-.047.006a.497.497 0 0 1-.357-.107.466.466 0 0 1-.166-.463l.012-.046.73-2.254ZM16.916 635a1.497 1.497 0 0 1 1.983-.224l.063.047.366.305a1.427 1.427 0 0 1 .23 1.963l-.05.064-5.155 6.082a.352.352 0 0 1-.493.043l-2.048-1.7a.35.35 0 0 1-.044-.497L16.916 635Z"/></g><path fill-rule="evenodd" clip-rule="evenodd" d="M8.205 655h13.59c1.114 0 1.519.116 1.926.334.407.218.727.538.945.945.218.407.334.811.334 1.926v13.59c0 1.115-.116 1.519-.334 1.926a2.275 2.275 0 0 1-.945.945c-.407.218-.811.334-1.926.334H8.205c-1.115 0-1.519-.116-1.926-.334a2.275 2.275 0 0 1-.945-.945c-.218-.407-.334-.811-.334-1.926v-13.59c0-1.115.116-1.519.334-1.926.218-.407.538-.727.945-.945.407-.218.811-.334 1.926-.334Z" fill="#4A7AAB"/><g fill="#fff"><path fill-rule="evenodd" clip-rule="evenodd" d="M14.17 659.053a.445.445 0 0 0-.602.181l-.512.917-1.036.181a.464.464 0 0 0-.375.509l.125 1.041-.717.747a.464.464 0 0 0-.011.622l.716.769-.147 1.052a.466.466 0 0 0 .295.476l-1.695 2.987c-.046.068-.034.158 0 .226a.235.235 0 0 0 .193.113h1.821l.83 1.437a.234.234 0 0 0 .194.113.22.22 0 0 0 .194-.113l1.627-2.761 1.627 2.795a.234.234 0 0 0 .193.113.22.22 0 0 0 .194-.113l.83-1.471h1.82a.22.22 0 0 0 .194-.113.186.186 0 0 0 .012-.226l-1.684-2.942a.47.47 0 0 0 .261-.464l-.125-1.041.717-.747c.16-.158.17-.43.011-.622l-.716-.769.148-1.053a.47.47 0 0 0-.365-.498l-1.035-.203-.5-.917a.45.45 0 0 0-.581-.215h-.011l-.956.442-.933-.453Zm-.716 1.335.512-.916.933.452a.437.437 0 0 0 .41 0l.944-.43h.011l.501.939c.068.114.182.204.307.215l1.036.204-.148 1.041a.438.438 0 0 0 .114.373l.716.77-.728.747a.421.421 0 0 0-.125.373l.125 1.041-1.024.17a.46.46 0 0 0-.318.226l-.512.916-.933-.452a.437.437 0 0 0-.41 0l-.945.441h-.011l-.5-.939a.424.424 0 0 0-.32-.215l-1.046-.192.148-1.041a.44.44 0 0 0-.114-.374l-.705-.769.716-.747a.423.423 0 0 0 .126-.373l-.126-1.03s0-.011.012-.022l1.035-.182a.457.457 0 0 0 .319-.226Z"/><path d="M14.973 664.792a1.839 1.839 0 0 1-1.834-1.834c0-1.008.825-1.833 1.834-1.833 1.008 0 1.833.825 1.833 1.833a1.839 1.839 0 0 1-1.833 1.834Z"/></g><path d="M8.2 680h13.6c1.113 0 1.53.104 1.913.348.417.209.73.522.94.939.208.417.347.8.347 1.913v13.6c0 1.113-.104 1.53-.348 1.913a2.05 2.05 0 0 1-.939.939c-.417.209-.8.348-1.913.348H8.2c-1.113 0-1.53-.104-1.913-.348-.383-.243-.73-.522-.94-.939-.208-.417-.347-.8-.347-1.913v-13.6c0-1.113.104-1.53.348-1.913a2.05 2.05 0 0 1 .939-.939c.383-.244.8-.348 1.913-.348Z" fill="#EE6C4D"/><mask id="b" fill="#fff"><path fill-rule="evenodd" clip-rule="evenodd" d="M17.427 694.29h-4.854c-.365 0-.661-.317-.661-.709v-7.162c0-.392.296-.709.661-.709h3.177v1.507a1 1 0 0 0 1 1h1.338v5.364c0 .392-.296.709-.662.709Zm-4.854.71h4.854c.73 0 1.323-.635 1.323-1.419v-5.348c0-.376-.14-.737-.388-1.004l-1.667-1.813a1.28 1.28 0 0 0-.936-.416h-3.186c-.73 0-1.323.635-1.323 1.419v7.162c0 .784.593 1.419 1.323 1.419Z"/></mask><path fill-rule="evenodd" clip-rule="evenodd" d="M17.427 694.29h-4.854c-.365 0-.661-.317-.661-.709v-7.162c0-.392.296-.709.661-.709h3.177v1.507a1 1 0 0 0 1 1h1.338v5.364c0 .392-.296.709-.662.709Zm-4.854.71h4.854c.73 0 1.323-.635 1.323-1.419v-5.348c0-.376-.14-.737-.388-1.004l-1.667-1.813a1.28 1.28 0 0 0-.936-.416h-3.186c-.73 0-1.323.635-1.323 1.419v7.162c0 .784.593 1.419 1.323 1.419Z" fill="#FBE8E2"/><path d="M15.75 685.71h2v-2h-2v2Zm2.338 2.507 2-.042-.041-1.958h-1.959v2Zm.274-.988-1.472 1.354.01.01 1.462-1.364Zm-1.667-1.813 1.472-1.354-.01-.01-1.462 1.364Zm-4.122 10.874h4.854v-4h-4.854v4Zm-2.661-2.709c0 1.362 1.062 2.709 2.661 2.709v-4c.869 0 1.339.712 1.339 1.291h-4Zm0-7.162v7.162h4v-7.162h-4Zm2.661-2.709c-1.599 0-2.661 1.347-2.661 2.709h4c0 .579-.47 1.291-1.339 1.291v-4Zm3.177 0h-3.177v4h3.177v-4Zm-2 2v1.507h4v-1.507h-4Zm0 1.507a3 3 0 0 0 3 3v-4a1 1 0 0 1 1 1h-4Zm3 3h1.338v-4H16.75v4Zm3.338-1.984v-.058l-4 .084v-.026h4Zm0 5.348v-5.348h-4v5.348h4Zm-2.662 2.709c1.6 0 2.662-1.347 2.662-2.709h-4c0-.579.47-1.291 1.338-1.291v4Zm0-3.29h-4.852v4h4.853v-4Zm-.676.581c0-.116.045-.248.15-.361a.724.724 0 0 1 .527-.22v4c1.964 0 3.323-1.665 3.323-3.419h-4Zm0-5.348v5.348h4v-5.348h-4Zm.15.36a.527.527 0 0 1-.15-.36h4c0-.864-.319-1.717-.925-2.368l-2.925 2.728Zm-1.678-1.823 1.668 1.813 2.944-2.707-1.667-1.814-2.945 2.708Zm.537.23a.723.723 0 0 1-.527-.22l2.925-2.728A3.28 3.28 0 0 0 15.76 683v4Zm-3.186 0h3.186v-4h-3.186v4Zm.677-.581a.535.535 0 0 1-.15.361.724.724 0 0 1-.527.22v-4c-1.964 0-3.323 1.665-3.323 3.419h4Zm0 7.162v-7.162h-4v7.162h4Zm-.677-.581c.234 0 .42.105.527.22.105.113.15.245.15.361h-4c0 1.754 1.359 3.419 3.323 3.419v-4Z" fill="#FBE8E2" mask="url(#b)"/><path fill-rule="evenodd" clip-rule="evenodd" d="M20.653 697H19.18a.503.503 0 1 1 0-1.009h1.474a.351.351 0 0 0 .338-.338v-1.474c0-.279.225-.504.505-.504s.504.225.504.504v1.474c0 .736-.61 1.347-1.347 1.347ZM9.347 683h1.474a.503.503 0 1 1 0 1.009H9.347a.351.351 0 0 0-.338.338v1.474a.503.503 0 1 1-1.009 0v-1.474c0-.736.61-1.347 1.347-1.347ZM8 695.653v-1.474a.503.503 0 1 1 1.009 0v1.474c0 .177.16.338.338.338h1.474a.503.503 0 1 1 0 1.009H9.347A1.357 1.357 0 0 1 8 695.653ZM22 684.347v1.474a.503.503 0 1 1-1.009 0v-1.474a.351.351 0 0 0-.338-.338H19.18a.503.503 0 1 1 0-1.009h1.474c.736 0 1.347.611 1.347 1.347Z" fill="#fff"/><defs><clipPath id="a"><path fill="#fff" transform="translate(55 5)" d="M0 0h24v18H0z"/></clipPath></defs></svg>